<svg width="40" height="40" viewBox="0 0 40 40" fill="none" xmlns="http://www.w3.org/2000/svg">
<path d="M35.7344 37.6562C35.4582 37.6562 35.2344 37.4324 35.2344 37.1562V27.8438C35.2344 27.5676 35.4582 27.3438 35.7344 27.3438H37.1562C37.4324 27.3438 37.6562 27.1199 37.6562 26.8438V25.5C37.6562 25.2239 37.4324 25 37.1562 25H2.84375C2.56761 25 2.34375 25.2239 2.34375 25.5V26.8438C2.34375 27.1199 2.56761 27.3438 2.84375 27.3438H4.26562C4.54177 27.3438 4.76562 27.5676 4.76562 27.8438V37.1562C4.76562 37.4324 4.54177 37.6562 4.26562 37.6562H0.5C0.223857 37.6562 0 37.8801 0 38.1562V39.5C0 39.7761 0.223858 40 0.5 40H39.5C39.7761 40 40 39.7761 40 39.5V38.1562C40 37.8801 39.7761 37.6562 39.5 37.6562H35.7344ZM9.45312 37.6562H7.10938V27.3438H9.45312V37.6562ZM14.1406 37.6562H11.7969V27.3438H14.1406V37.6562ZM18.8281 37.6562H16.4844V27.3438H18.8281V37.6562ZM23.5156 37.6562H21.1719V27.3438H23.5156V37.6562ZM28.2031 37.6562H25.8594V27.3438H28.2031V37.6562ZM32.8906 37.6562H30.5469V27.3438H32.8906V37.6562Z" fill="black"/>
<path d="M13.835 6.5625C13.835 6.28636 14.0588 6.0625 14.335 6.0625H18.3282C18.6043 6.0625 18.8282 6.28636 18.8282 6.5625V22.1555C18.8282 22.4317 18.6043 22.6555 18.3282 22.6555H14.335C14.0588 22.6555 13.835 22.4317 13.835 22.1555V6.5625Z" fill="black"/>
<path d="M21.1719 6.5625C21.1719 6.28636 21.3957 6.0625 21.6719 6.0625H25.6651C25.9412 6.0625 26.1651 6.28636 26.1651 6.5625V22.1555C26.1651 22.4317 25.9412 22.6555 25.6651 22.6555H21.6719C21.3957 22.6555 21.1719 22.4317 21.1719 22.1555V6.5625Z" fill="black"/>
<path d="M11.4909 4.21945C11.4909 3.94331 11.7148 3.71945 11.9909 3.71945H28.0086C28.2847 3.71945 28.5086 3.94331 28.5086 4.21945V22.1562C28.5086 22.4324 28.7325 22.6562 29.0086 22.6562H31.728C32.0042 22.6562 32.228 22.4324 32.228 22.1562V0.5C32.228 0.223858 32.0042 0 31.728 0H8.27149C7.99534 0 7.77148 0.223858 7.77148 0.5V22.1562C7.77148 22.4324 7.99534 22.6562 8.27148 22.6562H10.9909C11.2671 22.6562 11.4909 22.4324 11.4909 22.1562V4.21945Z" fill="black"/>
</svg>
