<svg width="40" height="40" viewBox="0 0 40 40" fill="none" xmlns="http://www.w3.org/2000/svg">
<g clip-path="url(#clip0)">
<path d="M9.68766 10.3047C9.49234 10.3047 9.33398 10.463 9.33398 10.6584V12.9067H16.7258V10.6583C16.7258 10.463 16.5675 10.3047 16.3722 10.3047H9.68766Z" fill="black"/>
<path d="M23.6281 10.3047C23.4328 10.3047 23.2744 10.463 23.2744 10.6584V12.9067H30.6662V10.6584C30.6662 10.463 30.5079 10.3048 30.3126 10.3048H23.6281V10.3047Z" fill="black"/>
<path d="M6.96711 12.8836V10.6584C6.96711 9.15815 8.18766 7.9376 9.68789 7.9376H16.3724C17.8727 7.9376 19.0932 9.15815 19.0932 10.6584V12.8836H20.9066V10.6584C20.9066 9.15815 22.1271 7.9376 23.6273 7.9376H30.3119C31.8121 7.9376 33.0327 9.15815 33.0327 10.6584V12.8836H34.9166C35.2841 12.8836 35.6431 12.9209 35.9901 12.9915V5.73088C35.9901 4.16854 34.7235 2.90198 33.1613 2.90198H6.83859C5.27625 2.90198 4.00977 4.16854 4.00977 5.73088V12.9915C4.35672 12.921 4.7157 12.8836 5.0832 12.8836H6.96711Z" fill="black"/>
<path d="M38.5334 20.2201H1.46664C0.656641 20.2201 0 20.8767 0 21.6867V31.2996C0 32.1096 0.656641 32.7663 1.46664 32.7663H38.5334C39.3434 32.7663 40 32.1096 40 31.2996V21.6867C40 20.8767 39.3434 20.2201 38.5334 20.2201Z" fill="black"/>
<path d="M34.9162 15.2512H5.08266C3.55891 15.2512 2.30047 16.384 2.10156 17.8533H37.8973C37.6984 16.384 36.4399 15.2512 34.9162 15.2512Z" fill="black"/>
<path d="M1.46582 35.1339V35.9159C1.46582 36.5695 1.99574 37.0995 2.64941 37.0995C3.30308 37.0995 3.833 36.5695 3.833 35.9159V35.134H1.46668C1.46637 35.1339 1.46613 35.1339 1.46582 35.1339Z" fill="black"/>
<path d="M36.167 35.133V35.9149C36.167 36.5686 36.6969 37.0985 37.3506 37.0985C38.0043 37.0985 38.5342 36.5686 38.5342 35.9149V35.1329C38.5339 35.1329 38.5336 35.1329 38.5333 35.1329H36.167V35.133Z" fill="black"/>
</g>
<defs>
<clipPath id="clip0">
<rect width="40" height="40" fill="white"/>
</clipPath>
</defs>
</svg>
