<svg width="40" height="40" viewBox="0 0 40 40" fill="none" xmlns="http://www.w3.org/2000/svg">
<g clip-path="url(#clip0)">
<path d="M38.8281 0C38.1809 0 37.6562 0.524687 37.6562 1.17188V11.2094H11.2094V7.75312C11.2094 6.89016 10.5098 6.19062 9.64688 6.19062H2.34375V1.17188C2.34375 0.524687 1.81906 0 1.17188 0C0.524687 0 0 0.524687 0 1.17188V38.8281C0 39.4753 0.524687 40 1.17188 40C1.81906 40 2.34375 39.4753 2.34375 38.8281V33.7938H37.6562V38.8281C37.6562 39.4753 38.1809 40 38.8281 40C39.4753 40 40 39.4753 40 38.8281V1.17188C40 0.524687 39.4753 0 38.8281 0ZM37.6562 21.3281H31.1688V16.2281H37.6562V21.3281ZM9.64688 23.7562H2.34375V16.2281H28.8251V28.775H11.2094V25.3187C11.2094 24.4558 10.5098 23.7562 9.64688 23.7562ZM31.1688 28.775V23.6719H37.6562V28.775H31.1688Z" fill="black"/>
</g>
<defs>
<clipPath id="clip0">
<rect width="40" height="40" fill="white"/>
</clipPath>
</defs>
</svg>
