<svg width="40" height="40" viewBox="0 0 40 40" fill="none" xmlns="http://www.w3.org/2000/svg">
<g clip-path="url(#clip0)">
<path d="M4.33612 18.4684C3.71326 18.4684 3.11969 18.3412 2.57983 18.1105V35.3114H16.5737V35.2858C16.5737 31.67 19.518 28.7278 23.1377 28.7278H26.9112C28.8924 28.7278 30.8306 28.188 32.5157 27.1669L33.4398 26.6066L33.4151 26.5574C34.5821 25.6794 35.5681 24.5683 36.2984 23.2997C37.1657 21.7933 37.6595 20.0731 37.7266 18.3238L37.7275 18.1129C37.1892 18.3418 36.5969 18.4684 35.9767 18.4684H4.33612Z" fill="black"/>
<path d="M16.8869 37.6553H2.1875C1.54022 37.6553 1.01562 38.1799 1.01562 38.8271C1.01562 39.4744 1.54022 39.999 2.1875 39.999H16.8869C17.5342 39.999 18.0588 39.4744 18.0588 38.8271C18.0588 38.1799 17.5342 37.6553 16.8869 37.6553Z" fill="black"/>
<path d="M36.7578 11.8276H15.0787V9.79639C15.0787 7.57684 13.3469 5.75525 11.1636 5.60907V2.4798C11.1636 2.40411 11.2256 2.34277 11.3016 2.34277H21.1856C21.8329 2.34277 22.3575 1.81818 22.3575 1.1709C22.3575 0.523621 21.8329 -0.000976562 21.1856 -0.000976562H11.3016C9.93317 -0.000976562 8.81958 1.112 8.81958 2.4798V5.59869H8.18207C7.00073 5.59869 6.03973 6.55969 6.03973 7.74133V11.8276H3.16406C1.97754 11.8276 1.01562 12.7896 1.01562 13.9761C1.01562 15.1626 1.97754 16.1245 3.16406 16.1245H36.7578C37.9443 16.1245 38.9062 15.1626 38.9062 13.9761C38.9062 12.7896 37.9443 11.8276 36.7578 11.8276Z" fill="black"/>
</g>
<defs>
<clipPath id="clip0">
<rect width="40" height="40" fill="white" transform="translate(0 -0.000976562)"/>
</clipPath>
</defs>
</svg>
