<svg width="40" height="40" viewBox="0 0 40 40" fill="none" xmlns="http://www.w3.org/2000/svg">
<g clip-path="url(#clip0)">
<path d="M10.1477 2.49977H25.2357C20.7892 -0.81273 14.6332 -0.85437 10.1477 2.49977Z" fill="black"/>
<path d="M27.6556 4.86086L27.6417 4.84375H7.24149L4.89868 32.9688H30.4928L30.0876 28.1038C35.1197 26.7359 38.7895 22.1335 38.7895 16.7125V16.6469C38.7895 10.3154 33.8673 5.18438 27.6556 4.86086ZM21.2114 25.8594C21.2114 27.7979 19.6343 29.375 17.6958 29.375C15.7573 29.375 14.1802 27.7979 14.1802 25.8594V11.7969C14.1802 9.85836 15.7573 8.28125 17.6958 8.28125C19.6343 8.28125 21.2114 9.85836 21.2114 11.7969V25.8594ZM29.586 22.1305L28.6724 11.0156C29.2647 10.9592 32.6036 12.4649 32.9099 16.1961C33.1451 19.0718 31.542 20.7387 29.586 22.1305Z" fill="black"/>
<path d="M2.38311 4.84375C1.70991 4.84375 1.1753 5.41039 1.2128 6.08203C1.22295 6.25859 1.45498 9.71641 4.16201 13.5773L4.88936 4.84375H2.38311Z" fill="black"/>
<path d="M16.5234 25.8594C16.5234 26.5055 17.0491 27.0312 17.6953 27.0312C18.3415 27.0312 18.8672 26.5055 18.8672 25.8594V19.9219H16.5234V25.8594Z" fill="black"/>
<path d="M17.6953 10.625C17.0491 10.625 16.5234 11.1507 16.5234 11.7969V17.5781H18.8672V11.7969C18.8672 11.1507 18.3415 10.625 17.6953 10.625Z" fill="black"/>
<path d="M37.2656 30.3904H35.625C34.1173 30.3904 32.8906 31.617 32.8906 33.1248V34.9216C32.8906 35.137 32.7154 35.3123 32.5 35.3123C31.1915 35.3123 5.88883 35.3123 4.80469 35.3123V38.8279C4.80469 39.4751 5.32937 39.9998 5.97656 39.9998H29.4141C30.0613 39.9998 30.5859 39.4751 30.5859 38.8279V37.656H32.5C34.0077 37.656 35.2344 36.4294 35.2344 34.9216V33.1248C35.2344 32.9094 35.4096 32.7341 35.625 32.7341H37.2656C37.9128 32.7341 38.4375 32.2094 38.4375 31.5623C38.4375 30.9151 37.9128 30.3904 37.2656 30.3904Z" fill="black"/>
</g>
<defs>
<clipPath id="clip0">
<rect width="40" height="40" fill="white"/>
</clipPath>
</defs>
</svg>
