<svg width="40" height="40" viewBox="0 0 40 40" fill="none" xmlns="http://www.w3.org/2000/svg">
<g clip-path="url(#clip0)">
<path d="M31.5386 17.1152H8.46176L7.07715 23.2691H32.9232L31.5386 17.1152Z" fill="black"/>
<path d="M36.5384 5.19287H3.46156C1.55281 5.19287 0 6.74568 0 8.65436V19.8082C0 21.7169 1.55281 23.2697 3.46156 23.2697H4.71156L6.41281 15.7088C6.53125 15.1822 6.99883 14.8082 7.53852 14.8082H32.4616C33.0013 14.8082 33.4688 15.1822 33.5873 15.7088L35.2885 23.2697H36.5385C38.4472 23.2697 40.0001 21.7169 40.0001 19.8082V8.65436C40 6.74568 38.4472 5.19287 36.5384 5.19287ZM26.1538 13.2697H24.6154C23.9781 13.2697 23.4616 12.7531 23.4616 12.1159C23.4616 11.4787 23.9782 10.9621 24.6154 10.9621H26.1538C26.7911 10.9621 27.3077 11.4787 27.3077 12.1159C27.3077 12.7531 26.7911 13.2697 26.1538 13.2697ZM31.5384 13.2697H30C29.3627 13.2697 28.8462 12.7531 28.8462 12.1159C28.8462 11.4787 29.3628 10.9621 30 10.9621H31.5384C32.1757 10.9621 32.6923 11.4787 32.6923 12.1159C32.6923 12.7531 32.1757 13.2697 31.5384 13.2697Z" fill="black"/>
<path d="M20.7689 28.5258C20.7689 28.2044 20.8288 28.1045 20.989 27.8376C21.2077 27.4732 21.5381 26.9226 21.5381 25.9619C21.5381 25.3247 21.0214 24.8081 20.3842 24.8081C19.7471 24.8081 19.2304 25.3247 19.2304 25.9619C19.2304 26.2833 19.1705 26.3832 19.0102 26.6501C18.7916 27.0145 18.4612 27.5651 18.4612 28.5258C18.4612 29.4864 18.7916 30.0371 19.0102 30.4015C19.1704 30.6687 19.2304 30.7686 19.2304 31.09C19.2304 31.4114 19.1705 31.5115 19.0102 31.7784C18.7916 32.1429 18.4612 32.6936 18.4612 33.6542C18.4612 34.2915 18.9778 34.808 19.615 34.808C20.2522 34.808 20.7689 34.2914 20.7689 33.6542C20.7689 33.3327 20.8288 33.2327 20.9891 32.9658C21.2077 32.6014 21.5381 32.0507 21.5381 31.09C21.5381 30.1293 21.2077 29.5787 20.9891 29.2142C20.8289 28.9472 20.7689 28.8472 20.7689 28.5258Z" fill="black"/>
<path d="M14.6153 28.5258C14.6153 28.2044 14.6752 28.1045 14.8354 27.8376C15.0541 27.4732 15.3845 26.9226 15.3845 25.9619C15.3845 25.3247 14.8679 24.8081 14.2307 24.8081C13.5935 24.8081 13.0768 25.3247 13.0768 25.9619C13.0768 26.2833 13.0169 26.3832 12.8567 26.6501C12.638 27.0145 12.3076 27.5651 12.3076 28.5258C12.3076 29.4864 12.638 30.0371 12.8566 30.4015C13.0168 30.6687 13.0768 30.7686 13.0768 31.09C13.0768 31.4114 13.0169 31.5115 12.8566 31.7784C12.638 32.1429 12.3076 32.6936 12.3076 33.6542C12.3076 34.2915 12.8243 34.808 13.4614 34.808C14.0986 34.808 14.6153 34.2914 14.6153 33.6542C14.6153 33.3327 14.6752 33.2327 14.8355 32.9658C15.0541 32.6014 15.3845 32.0507 15.3845 31.09C15.3845 30.1293 15.0541 29.5787 14.8355 29.2142C14.6753 28.9472 14.6153 28.8472 14.6153 28.5258Z" fill="black"/>
<path d="M26.9229 28.5258C26.9229 28.2044 26.9828 28.1045 27.143 27.8376C27.3617 27.4732 27.6921 26.9226 27.6921 25.9619C27.6921 25.3247 27.1755 24.8081 26.5383 24.8081C25.9011 24.8081 25.3845 25.3247 25.3845 25.9619C25.3845 26.2833 25.3245 26.3832 25.1643 26.6501C24.9456 27.0145 24.6152 27.5651 24.6152 28.5258C24.6152 29.4864 24.9456 30.0371 25.1642 30.4015C25.3245 30.6687 25.3845 30.7686 25.3845 31.09C25.3845 31.4114 25.3245 31.5115 25.1642 31.7784C24.9456 32.1429 24.6152 32.6936 24.6152 33.6542C24.6152 34.2915 25.1319 34.808 25.7691 34.808C26.4063 34.808 26.9229 34.2914 26.9229 33.6542C26.9229 33.3327 26.9828 33.2327 27.1431 32.9658C27.3617 32.6014 27.6921 32.0507 27.6921 31.09C27.6921 30.1293 27.3617 29.5787 27.1431 29.2142C26.9829 28.9472 26.9229 28.8472 26.9229 28.5258Z" fill="black"/>
</g>
<defs>
<clipPath id="clip0">
<rect width="40" height="40" fill="white"/>
</clipPath>
</defs>
</svg>
