<svg width="40" height="40" viewBox="0 0 40 40" fill="none" xmlns="http://www.w3.org/2000/svg">
<g clip-path="url(#clip0)">
<path d="M28.8623 34.116C28.8623 34.7654 29.3894 35.2925 30.0388 35.2925H36.3132C36.9626 35.2925 37.4897 34.7654 37.4897 34.116V30.2729H28.8623V34.116Z" fill="black"/>
<path d="M31.9997 8.46863H27.5291C26.8227 8.46863 26.2715 9.09074 26.3621 9.79568L26.8389 13.4882H31.9997V8.46863Z" fill="black"/>
<path d="M28.7 27.9199H37.6505L39.2089 15.8416H27.1416L28.7 27.9199Z" fill="black"/>
<path d="M38.824 8.46863H34.3535V13.4882H39.5142L39.9911 9.79568C40.0813 9.09356 39.5333 8.46863 38.824 8.46863Z" fill="black"/>
<path d="M16.9404 24.548V26.0382H26.0847L25.4376 21.0187H20.4698C18.5875 21.0187 16.9404 22.5258 16.9404 24.548Z" fill="black"/>
<path d="M16.9404 34.1158C16.9404 34.7652 17.4675 35.2923 18.1169 35.2923H26.4306V28.3904H16.9404V34.1158Z" fill="black"/>
<path d="M0 22.1953V23.4502V34.1167C0 34.7661 0.527055 35.2932 1.17646 35.2932H8.94111V14.1632C4.15212 13.6501 0 17.4199 0 22.1953Z" fill="black"/>
<path d="M12.3928 12.6967V10.5869C12.3928 9.9375 11.8657 9.41044 11.2163 9.41044H9.25553V7.05752H14.3535C15.0029 7.05752 15.53 6.53046 15.53 5.88105C15.53 5.23165 15.0029 4.70459 14.3535 4.70459H6.19673C5.54733 4.70459 5.02027 5.23165 5.02027 5.88105C5.02027 6.53046 5.54733 7.05752 6.19673 7.05752H6.90261V9.41044H4.94184C4.29244 9.41044 3.76538 9.9375 3.76538 10.5869V12.6975C6.46583 11.4656 9.62604 11.4385 12.3928 12.6967Z" fill="black"/>
<path d="M19.2941 13.4102C19.2941 12.472 18.246 11.9102 17.4651 12.4314L11.8181 16.1961C11.491 16.4141 11.2942 16.7812 11.2942 17.1749V21.6454H15.3553C16.182 20.1937 17.6079 19.127 19.2941 18.7835V13.4102Z" fill="black"/>
<path d="M11.2942 34.1155C11.2942 34.7649 11.8212 35.292 12.4707 35.292H14.5883V23.9979H11.2942V34.1155Z" fill="black"/>
</g>
<defs>
<clipPath id="clip0">
<rect width="40" height="40" fill="white" transform="translate(0 -0.000976562)"/>
</clipPath>
</defs>
</svg>
