<svg width="40" height="40" viewBox="0 0 40 40" fill="none" xmlns="http://www.w3.org/2000/svg">
<path d="M16.2503 12.7814C16.5503 12.7814 16.8502 12.6628 17.0789 12.4255L17.7039 11.7774C18.1616 11.3029 18.1616 10.5336 17.7039 10.059C17.2463 9.58449 16.5043 9.58449 16.0467 10.059L15.4217 10.7071C14.6813 11.4749 15.2158 12.7814 16.2503 12.7814Z" fill="black"/>
<path d="M21.2513 13.4299C21.5512 13.4299 21.8512 13.3113 22.0799 13.0739L22.7049 12.4259C23.1626 11.9513 23.1626 11.182 22.7049 10.7075C22.2473 10.2329 21.5053 10.2329 21.0477 10.7075L20.4226 11.3555C19.6823 12.1233 20.2168 13.4299 21.2513 13.4299Z" fill="black"/>
<path d="M16.2503 17.965C16.5503 17.965 16.8502 17.8464 17.0789 17.6091L17.7039 16.961C18.1616 16.4865 18.1616 15.7172 17.7039 15.2426C17.2463 14.7681 16.5043 14.7681 16.0467 15.2426L15.4217 15.8907C14.6813 16.6585 15.2158 17.965 16.2503 17.965Z" fill="black"/>
<path d="M1.17188 23.1502H38.8281C39.4753 23.1502 40 22.6061 40 21.935C40 21.264 39.4753 20.7199 38.8281 20.7199H37.4219V5.52665C37.4219 2.47429 35.0403 0 32.0926 0C30.8615 0 29.6605 0.44627 28.7111 1.25391L27.9751 1.88002C26.3282 0.874962 24.1688 1.10454 22.7563 2.56923L20.9885 4.40219C20.5309 4.87673 20.5309 5.64606 20.9885 6.1206L25.408 10.7031C25.8655 11.1777 26.6076 11.1777 27.0652 10.7031C28.9418 8.75731 28.8252 8.87016 28.833 8.87016C30.1951 7.45787 30.4497 5.32543 29.597 3.6438L30.1977 3.1328C30.7268 2.68272 31.3952 2.43322 32.0795 2.43031C33.6807 2.4154 35.0781 3.76523 35.0781 5.52665V20.72C33.8774 20.72 2.36117 20.72 1.17188 20.72C0.524687 20.72 0 21.2641 0 21.9351C0 22.6062 0.524687 23.1502 1.17188 23.1502Z" fill="black"/>
<path d="M3.19824 25.5801L3.69754 28.4274C4.44059 32.6651 7.47316 35.9562 11.3282 37.0318V38.7844C11.3282 39.4554 11.8529 39.9995 12.5001 39.9995C13.1473 39.9995 13.672 39.4554 13.672 38.7844V37.3988C14.0378 37.4132 26.0046 37.4115 26.3282 37.3988V38.7844C26.3282 39.4554 26.8529 39.9995 27.5001 39.9995C28.1473 39.9995 28.672 39.4554 28.672 38.7844V37.0318C32.5271 35.9562 35.5596 32.6651 36.3027 28.4275L36.802 25.5802H3.19824V25.5801Z" fill="black"/>
</svg>
