<svg width="40" height="40" viewBox="0 0 40 40" fill="none" xmlns="http://www.w3.org/2000/svg">
<g clip-path="url(#clip0)">
<path d="M26.9021 15.3054C27.5543 15.3054 28.0787 14.7759 28.0787 14.1289V1.65791C28.0787 0.86573 27.3073 0.294497 26.5445 0.537093L22.4314 1.85086V13.8787C26.8749 15.3598 26.6363 15.3054 26.9021 15.3054Z" fill="black"/>
<path d="M31.9221 4.01097H38.8243C39.474 4.01097 40.0008 3.48421 40.0008 2.83447C40.0008 2.18472 39.474 1.65796 38.8243 1.65796H31.9221C31.2724 1.65796 30.7456 2.18472 30.7456 2.83447C30.7456 3.48421 31.2723 4.01097 31.9221 4.01097Z" fill="black"/>
<path d="M31.9221 9.03075H38.8243C39.474 9.03075 40.0008 8.50399 40.0008 7.85424C40.0008 7.2045 39.474 6.67773 38.8243 6.67773H31.9221C31.2724 6.67773 30.7456 7.2045 30.7456 7.85424C30.7456 8.50399 31.2723 9.03075 31.9221 9.03075Z" fill="black"/>
<path d="M31.9221 14.0503H38.8243C39.474 14.0503 40.0008 13.5235 40.0008 12.8738C40.0008 12.224 39.474 11.6973 38.8243 11.6973H31.9221C31.2724 11.6973 30.7456 12.224 30.7456 12.8738C30.7456 13.5235 31.2723 14.0503 31.9221 14.0503Z" fill="black"/>
<path d="M6.9016 15.2466V0.462646C1.36182 1.16314 -1.45914 7.53565 1.72496 12.1085C2.95739 13.8782 4.85204 14.9877 6.9016 15.2466Z" fill="black"/>
<path d="M20.0783 2.10477L9.25439 0.558838V15.1491L20.0783 13.6032V2.10477Z" fill="black"/>
<path d="M14.174 16.6387C7.75146 17.5562 8.20049 17.5007 7.99499 17.5007C6.71692 17.5007 5.55123 17.2592 4.39174 16.6512V25.184C4.39174 26.7833 5.41531 28.1481 6.84123 28.6563C6.44514 32.3756 4.10468 35.6981 0.678686 37.2942C-0.457821 37.8244 -0.0797695 39.5374 1.17674 39.5374C1.34302 39.5374 1.51244 39.5021 1.67323 39.4276C5.87414 37.4691 8.78639 33.4008 9.20209 28.6947C10.6868 28.2186 11.7645 26.8249 11.7645 25.184V23.6005C14.1889 24.5417 16.7843 22.7393 16.7843 20.1643C16.7843 18.4576 15.6454 17.0936 14.174 16.6387ZM13.0979 21.4976C12.363 21.4976 11.7645 20.8992 11.7645 20.1643C11.7645 19.4293 12.363 18.8309 13.0979 18.8309C13.8328 18.8309 14.4313 19.4293 14.4313 20.1643C14.4313 20.8992 13.8328 21.4976 13.0979 21.4976Z" fill="black"/>
</g>
<defs>
<clipPath id="clip0">
<rect width="40" height="40" fill="white"/>
</clipPath>
</defs>
</svg>
