<svg width="40" height="40" viewBox="0 0 40 40" fill="none" xmlns="http://www.w3.org/2000/svg">
<g clip-path="url(#clip0)">
<path d="M14.5376 2.60732C13.5266 4.13228 12.9697 6.12056 12.9697 8.20587C12.9697 11.0353 14.9858 13.4025 17.6569 13.9468V24.3179C16.293 24.8016 15.3133 26.104 15.3133 27.6317V36.4847C15.3133 38.423 16.8902 40 18.8286 40C20.7669 40 22.344 38.4231 22.344 36.4847V27.6317C22.344 26.104 21.3643 24.8016 20.0004 24.3179V13.9468C22.6714 13.4025 24.6876 11.0353 24.6876 8.20587C24.6876 6.12814 24.1309 4.14282 23.12 2.61552C20.816 -0.865779 16.8468 -0.875154 14.5376 2.60732Z" fill="black"/>
<path d="M9.24871 0.0198103C9.16755 0.0342623 7.23856 0.387438 5.30613 1.62563C2.65321 3.32534 1.25098 5.85233 1.25098 8.93343V25.2866C1.25098 25.9338 1.77562 26.4584 2.42276 26.4584H10.6256V1.17355C10.6256 0.444153 9.96546 -0.107524 9.24871 0.0198103Z" fill="black"/>
<path d="M37.5775 0.00354004C36.9304 0.00354004 36.4058 0.528188 36.4058 1.17533V4.69108H34.0622V1.17533C34.0622 0.528188 33.5375 0.00354004 32.8904 0.00354004C32.2433 0.00354004 31.7186 0.528188 31.7186 1.17533V4.69108H29.3751V1.17533C29.3751 0.528188 28.8504 0.00354004 28.2033 0.00354004C27.5561 0.00354004 27.0315 0.528188 27.0315 1.17533V9.378C27.0315 11.9625 29.1341 14.0651 31.7186 14.0651V24.3182C30.3547 24.8019 29.3751 26.1043 29.3751 27.632V36.485C29.3751 38.4234 30.952 40.0004 32.8904 40.0004C34.8289 40.0004 36.4058 38.4235 36.4058 36.485V27.632C36.4058 26.1043 35.4261 24.8019 34.0622 24.3182V14.0651C36.6467 14.0651 38.7493 11.9625 38.7493 9.378V1.17533C38.7493 0.528188 38.2248 0.00354004 37.5775 0.00354004Z" fill="black"/>
<path d="M3.59448 36.4843C3.59448 38.4227 5.17139 39.9997 7.10984 39.9997C9.04821 39.9997 10.6252 38.4228 10.6252 36.4843V28.8031H3.59448V36.4843Z" fill="black"/>
</g>
<defs>
<clipPath id="clip0">
<rect width="40" height="40" fill="white"/>
</clipPath>
</defs>
</svg>
