<svg width="40" height="40" viewBox="0 0 40 40" fill="none" xmlns="http://www.w3.org/2000/svg">
<g clip-path="url(#clip0)">
<path d="M0.00927734 40.0003H16.4859V30.5516H0.00927734V40.0003ZM3.61287 32.9984H12.9604V35.3411H3.61287V32.9984Z" fill="black"/>
<path d="M0.00927734 28.2087H16.4859V18.9163H0.00927734V28.2087ZM3.61287 21.4089H12.9604V23.7516H3.61287V21.4089Z" fill="black"/>
<path d="M18.8284 40.0001H39.9903V18.9163H18.8284V40.0001ZM32.8843 21.4089H35.227V23.8094H32.8843V21.4089ZM28.199 21.4089H30.5417V23.8094H28.199V21.4089ZM23.5137 21.4089H25.8563V23.8094H23.5137V21.4089ZM23.5137 25.9052H35.227V35.3149H23.5137V25.9052Z" fill="black"/>
<path d="M32.8843 5.40086V0H25.8563V5.40477L18.8284 10.09V14.2309H39.9903V10.0861L32.8843 5.40086Z" fill="black"/>
</g>
<defs>
<clipPath id="clip0">
<rect width="40" height="40" fill="white"/>
</clipPath>
</defs>
</svg>
