<svg width="40" height="40" viewBox="0 0 40 40" fill="none" xmlns="http://www.w3.org/2000/svg">
<path d="M6.60913 14.9685H25.1705V25.14H6.60913V14.9685Z" fill="black"/>
<path d="M30.9839 8.35938H3.12134C1.40015 8.35938 0 9.75983 0 11.4807V28.627C0 30.3482 1.40015 31.7487 3.12134 31.7487H30.9839V8.35938ZM27.5558 13.7753V26.3327C27.5558 26.9913 27.0218 27.5256 26.3632 27.5256H5.41595C4.75708 27.5256 4.22302 26.9913 4.22302 26.3327V13.7753C4.22302 13.1165 4.75708 12.5824 5.41595 12.5824H26.3629C27.0218 12.5824 27.5558 13.1165 27.5558 13.7753Z" fill="black"/>
<path d="M33.3694 24.2108H39.9999V11.4807C39.9999 9.75952 38.5998 8.35938 36.8786 8.35938H33.3694V24.2108ZM36.2872 22.1777C35.6185 22.1777 35.1232 21.6312 35.0942 20.9848C35.0652 20.3406 35.6631 19.7922 36.2872 19.7922C36.9558 19.7922 37.4511 20.3387 37.4798 20.9848C37.5088 21.629 36.9109 22.1777 36.2872 22.1777ZM36.2872 17.8195C35.6185 17.8195 35.1232 17.2729 35.0942 16.6266C35.0652 15.9824 35.6631 15.434 36.2872 15.434C36.9558 15.434 37.4511 15.9802 37.4798 16.6266C37.5088 17.2708 36.9109 17.8195 36.2872 17.8195ZM36.2872 13.4613C35.6185 13.4613 35.1232 12.9147 35.0942 12.2684C35.0652 11.6241 35.6631 11.0757 36.2872 11.0757C36.9558 11.0757 37.4511 11.6223 37.4798 12.2684C37.5088 12.9126 36.9109 13.4613 36.2872 13.4613Z" fill="black"/>
<path d="M33.3694 26.5961V31.7484H36.8786C38.5998 31.7484 39.9999 30.3482 39.9999 28.627V26.5961H33.3694Z" fill="black"/>
</svg>
