<svg width="40" height="40" viewBox="0 0 40 40" fill="none" xmlns="http://www.w3.org/2000/svg">
<g clip-path="url(#clip0)">
<path d="M10.7373 38.8248C10.7373 39.4736 11.2632 39.9995 11.912 39.9995C12.5607 39.9995 13.0867 39.4736 13.0867 38.8248V38.3538H10.7373V38.8248Z" fill="black"/>
<path d="M26.5803 38.8248C26.5803 39.4736 27.1063 39.9995 27.755 39.9995C28.4038 39.9995 28.9297 39.4736 28.9297 38.8248V38.3538H26.5803V38.8248Z" fill="black"/>
<path d="M29.6661 0H10.3349C9.66613 0 9.12402 0.542109 9.12402 1.21086V11.7183H30.877V1.21086C30.877 0.542109 30.3349 0 29.6661 0V0ZM14.135 8.51781C14.135 9.16656 13.609 9.6925 12.9603 9.6925C12.3115 9.6925 11.7856 9.16656 11.7856 8.51781V3.32281C11.7856 2.67406 12.3115 2.14812 12.9603 2.14812C13.609 2.14812 14.135 2.67406 14.135 3.32281V8.51781Z" fill="black"/>
<path d="M9.12402 34.7944C9.12402 35.4632 9.66613 36.0053 10.3349 36.0053H29.6661C30.3349 36.0053 30.877 35.4632 30.877 34.7944V14.0681H9.12402V34.7944ZM11.6977 17.1132C11.6977 16.4644 12.2236 15.9385 12.8724 15.9385C13.5211 15.9385 14.0471 16.4644 14.0471 17.1132V31.4387C14.0471 32.0875 13.5211 32.6134 12.8724 32.6134C12.2236 32.6134 11.6977 32.0875 11.6977 31.4387V17.1132Z" fill="black"/>
</g>
<defs>
<clipPath id="clip0">
<rect width="40" height="40" fill="white"/>
</clipPath>
</defs>
</svg>
