<svg width="40" height="40" viewBox="0 0 40 40" fill="none" xmlns="http://www.w3.org/2000/svg">
<g clip-path="url(#clip0)">
<path d="M10.0732 29.7691H29.9266V27.5547H10.0732V29.7691Z" fill="black"/>
<path d="M10.0732 20.6875H29.9266V25.208H10.0732V20.6875Z" fill="black"/>
<path d="M37.2186 13.8745V10.0723C37.2186 7.83196 35.4025 6.01587 33.1621 6.01587H6.83668C4.59637 6.01587 2.78027 7.83196 2.78027 10.0723V13.8745C3.13199 13.8124 3.49316 13.7782 3.86246 13.7782C6.71598 13.7782 9.12465 15.7134 9.84887 18.3399H30.15C30.8742 15.7134 33.2829 13.7782 36.1364 13.7782C36.5057 13.7782 36.8668 13.8124 37.2186 13.8745Z" fill="black"/>
<path d="M3.94922 32.8109C3.94922 33.4591 4.47469 33.9846 5.12289 33.9846C5.77109 33.9846 6.29656 33.4591 6.29656 32.8109V32.1171H3.94922V32.8109Z" fill="black"/>
<path d="M33.7031 32.8109C33.7031 33.4591 34.2286 33.9846 34.8767 33.9846C35.5249 33.9846 36.0504 33.4591 36.0504 32.8109V32.1171H33.7031V32.8109Z" fill="black"/>
<path d="M3.85164 16.1253C1.79141 16.1312 0.075625 17.7887 0.00250004 19.8476C-0.0622656 21.6714 1.13828 23.2245 2.79453 23.7004V28.678C2.79453 29.2806 3.28305 29.769 3.88555 29.769H7.72602V19.9882C7.72609 17.851 5.99039 16.1191 3.85164 16.1253ZM3.86305 21.3033C3.18219 21.3033 2.63016 20.7514 2.63016 20.0704C2.63016 19.3896 3.18219 18.8375 3.86305 18.8375C4.54398 18.8375 5.09594 19.3895 5.09594 20.0704C5.09594 20.7514 4.54398 21.3033 3.86305 21.3033Z" fill="black"/>
<path d="M36.0711 16.126C33.9531 16.1614 32.2742 17.9337 32.2742 20.0521V29.7693H36.1146C36.7172 29.7693 37.2057 29.2809 37.2057 28.6783V23.7006C38.8192 23.237 40.0002 21.7512 40.0002 19.9885C40.0002 17.833 38.2348 16.0899 36.0711 16.126ZM36.1371 21.3035C35.4563 21.3035 34.9042 20.7516 34.9042 20.0706C34.9042 19.3898 35.4562 18.8378 36.1371 18.8378C36.8181 18.8378 37.37 19.3897 37.37 20.0706C37.37 20.7516 36.8181 21.3035 36.1371 21.3035Z" fill="black"/>
</g>
<defs>
<clipPath id="clip0">
<rect width="40" height="40" fill="white"/>
</clipPath>
</defs>
</svg>
