<svg width="40" height="40" viewBox="0 0 40 40" fill="none" xmlns="http://www.w3.org/2000/svg">
<g clip-path="url(#clip0)">
<path d="M20 29.8331L20.8835 28.8203C27.0026 21.8005 27.0026 11.2147 20.8835 4.19492L20 3.20312L19.1165 4.19492C12.9973 11.2148 12.9973 21.8005 19.1165 28.8203L20 29.8331Z" fill="black"/>
<path d="M32.8667 28.5337C27.9317 31.8495 23.8725 31.9745 20 32.2497C20.2373 32.2664 12.9788 32.4693 7.12867 28.5347C2.82016 29.3946 0 30.6757 0 32.1091C0 34.6979 8.9975 36.7966 20 36.7966C31.0025 36.7966 40 34.6979 40 32.1091C40 30.6752 37.1781 29.3934 32.8667 28.5337Z" fill="black"/>
<path d="M34.471 11.8493C34.6327 18.4538 31.6598 24.8669 26.4148 28.9975C33.7961 26.8314 39.365 20.2312 39.9085 12.309L40.0001 10.9678L38.6589 11.0593C37.2209 11.1583 35.8037 11.4396 34.471 11.8493Z" fill="black"/>
<path d="M13.5863 28.9978C8.34203 24.868 5.36891 18.4542 5.52992 11.8495C4.19695 11.4398 2.77945 11.1582 1.34125 11.0593L0 10.9678L0.0915625 12.309C0.635156 20.2315 6.20445 26.832 13.5863 28.9978Z" fill="black"/>
<path d="M24.9294 27.1876C31.0622 22.3864 33.739 14.0767 31.1876 6.47895L30.7596 5.2041L29.5546 5.80262C28.2803 6.43605 27.12 7.21527 26.056 8.08973C28.7072 14.2145 28.3423 21.3579 24.9294 27.1876Z" fill="black"/>
<path d="M15.0714 27.188C11.6573 21.3581 11.2929 14.2144 13.9436 8.08957C12.8798 7.21512 11.7196 6.43605 10.4454 5.80262L9.24029 5.2041L8.81224 6.47895C6.2624 14.0762 8.93904 22.3866 15.0714 27.188Z" fill="black"/>
</g>
<defs>
<clipPath id="clip0">
<rect width="40" height="40" fill="white"/>
</clipPath>
</defs>
</svg>
