<svg width="40" height="40" viewBox="0 0 40 40" fill="none" xmlns="http://www.w3.org/2000/svg">
<path d="M6.42407 38.83C6.42407 39.4759 6.94774 39.9995 7.5936 39.9995C8.23954 39.9995 8.76321 39.4759 8.76321 38.83V38.1954H6.42407V38.83Z" fill="black"/>
<path d="M31.2374 38.83C31.2374 39.4759 31.7611 39.9995 32.4069 39.9995C33.0528 39.9995 33.5764 39.4759 33.5764 38.83V38.1954H31.2373V38.83H31.2374Z" fill="black"/>
<path fill-rule="evenodd" clip-rule="evenodd" d="M4.41755 35.8569C3.87911 35.8569 3.44263 35.4205 3.44263 34.882V9.26929H36.5586V34.882C36.5586 35.4205 36.1222 35.8569 35.5837 35.8569H4.41755ZM20.0002 30C24.4185 30 28.0002 26.4183 28.0002 22C28.0002 17.5817 24.4185 14 20.0002 14C15.582 14 12.0002 17.5817 12.0002 22C12.0002 26.4183 15.582 30 20.0002 30Z" fill="black"/>
<path d="M35.5838 0H4.41755C3.87911 0 3.44263 0.436484 3.44263 0.974922V6.92992H36.5587V0.974922C36.5587 0.436484 36.1222 0 35.5838 0ZM8.18521 4.75773C7.532 4.75773 7.00247 4.22859 7.00247 3.57586C7.00247 2.92313 7.532 2.39398 8.18521 2.39398C8.83841 2.39398 9.36786 2.9232 9.36786 3.57594C9.36786 4.22867 8.83841 4.75773 8.18521 4.75773ZM12.9715 4.75773C12.3183 4.75773 11.7888 4.22859 11.7888 3.57586C11.7888 2.92313 12.3183 2.39398 12.9715 2.39398C13.6247 2.39398 14.1542 2.92313 14.1542 3.57586C14.1542 4.22859 13.6247 4.75773 12.9715 4.75773ZM27.0298 4.75773C26.3766 4.75773 25.8471 4.22859 25.8471 3.57586C25.8471 2.92313 26.3766 2.39398 27.0298 2.39398C27.683 2.39398 28.2125 2.92313 28.2125 3.57586C28.2125 4.22859 27.683 4.75773 27.0298 4.75773ZM31.8161 4.75773C31.1629 4.75773 30.6334 4.22859 30.6334 3.57586C30.6334 2.92313 31.1629 2.39398 31.8161 2.39398C32.4693 2.39398 32.9989 2.92313 32.9989 3.57586C32.9989 4.22859 32.4693 4.75773 31.8161 4.75773Z" fill="black"/>
</svg>
