<svg width="40" height="40" viewBox="0 0 40 40" fill="none" xmlns="http://www.w3.org/2000/svg">
<g clip-path="url(#clip0)">
<path d="M32.6084 0H7.39246C5.80199 0 4.5127 1.2893 4.5127 2.87977V3.50195L35.4882 3.50188V2.87977C35.4882 1.2893 34.1989 0 32.6084 0Z" fill="black"/>
<path d="M10.6465 23.7734C10.6465 26.0183 11.6945 28.0183 13.328 29.3116C14.8959 30.553 15.6312 32.5708 15.215 34.5269L14.4371 38.1819C14.2378 39.1184 14.952 40.0006 15.9095 40.0006H24.0918C25.0494 40.0006 25.7635 39.1184 25.5642 38.1819L24.7864 34.5268C24.3701 32.5707 25.1054 30.5528 26.6734 29.3115C28.3069 28.0182 29.3549 26.0182 29.3549 23.7733V23.4373H10.6465V23.7734Z" fill="black"/>
<path d="M28.576 16.2983H11.4252C9.74188 16.2983 8.3772 17.6625 8.3772 19.3452V21.0655H31.6241V19.3452C31.6241 17.6625 30.2594 16.2983 28.576 16.2983Z" fill="black"/>
<path d="M5.36843 18.8446C5.40397 19.4156 5.64038 19.9286 6.00577 20.3175V19.3445C6.00577 16.3567 8.4371 13.9259 11.4255 13.9259H28.5763C31.5648 13.9259 33.996 16.3567 33.996 19.3445V20.3174C34.3614 19.9285 34.5979 19.4155 34.6333 18.8445L35.3908 5.87109H4.61108L5.36843 18.8446ZM8.54538 8.39727C9.20382 8.39727 9.73765 8.93086 9.73765 9.58906C9.73765 10.2473 9.20382 10.7809 8.54538 10.7809C7.88694 10.7809 7.35312 10.2473 7.35312 9.58906C7.35312 8.93086 7.88687 8.39727 8.54538 8.39727Z" fill="black"/>
</g>
<defs>
<clipPath id="clip0">
<rect width="40" height="40" fill="white"/>
</clipPath>
</defs>
</svg>
