<svg width="40" height="40" viewBox="0 0 40 40" fill="none" xmlns="http://www.w3.org/2000/svg">
<path d="M38.6407 5.23999H1.3593C0.608594 5.23999 0 5.84858 0 6.59929V26.8626C0 27.6133 0.608594 28.2219 1.3593 28.2219H38.6407C39.3914 28.2219 40 27.6133 40 26.8626V6.59929C40 5.84858 39.3914 5.23999 38.6407 5.23999Z" fill="black"/>
<path d="M27.7668 32.4028H23.152V30.5801H16.8467V32.4028H12.2319C11.5807 32.4028 11.0527 32.9307 11.0527 33.582C11.0527 34.2331 11.5806 34.7611 12.2319 34.7611H27.7668C28.418 34.7611 28.9459 34.2332 28.9459 33.582C28.9459 32.9308 28.418 32.4028 27.7668 32.4028Z" fill="black"/>
</svg>
