<svg width="40" height="40" viewBox="0 0 40 40" fill="none" xmlns="http://www.w3.org/2000/svg">
<g clip-path="url(#clip0)">
<path d="M7.50238 15.1479C4.29529 15.1479 1.68604 12.5387 1.68604 9.3316C1.68604 6.12451 4.29529 3.51526 7.50238 3.51526C10.7095 3.51526 13.3187 6.12451 13.3187 9.3316C13.3187 12.5387 10.7095 15.1479 7.50238 15.1479Z" fill="black"/>
<path d="M7.50229 36.465C7.01309 36.465 6.57455 36.1635 6.39938 35.7066L0.0779707 19.214C-0.0611895 18.8508 -0.0126665 18.4425 0.20767 18.1221C0.428007 17.8016 0.792082 17.61 1.18088 17.61H13.8234C14.2122 17.61 14.5763 17.8016 14.7966 18.1221C15.0169 18.4425 15.0655 18.8508 14.9263 19.214L8.60519 35.7066C8.43002 36.1635 7.99148 36.465 7.50229 36.465Z" fill="black"/>
<path d="M32.4977 15.1479C29.2906 15.1479 26.6814 12.5387 26.6814 9.3316C26.6814 6.12451 29.2906 3.51526 32.4977 3.51526C35.7048 3.51526 38.3141 6.12451 38.3141 9.3316C38.3141 12.5387 35.7048 15.1479 32.4977 15.1479Z" fill="black"/>
<path d="M38.819 36.465H26.1765C25.7877 36.465 25.4236 36.2736 25.2033 35.9532C24.9829 35.6328 24.9344 35.2244 25.0736 34.8613L31.3947 18.3683C31.5698 17.9115 32.0084 17.61 32.4976 17.61C32.9871 17.61 33.4256 17.9115 33.6005 18.3683L39.9219 34.8613C40.0611 35.2244 40.0125 35.6328 39.7922 35.9532C39.5719 36.2736 39.2078 36.465 38.819 36.465Z" fill="black"/>
<path d="M19.9999 36.4644C19.3477 36.4644 18.8188 35.9355 18.8188 35.2834V4.69629C18.8188 4.04413 19.3477 3.51526 19.9999 3.51526C20.652 3.51526 21.1809 4.04413 21.1809 4.69629V35.2834C21.1809 35.9355 20.6523 36.4644 19.9999 36.4644Z" fill="black"/>
</g>
<defs>
<clipPath id="clip0">
<rect width="40" height="40" fill="white"/>
</clipPath>
</defs>
</svg>
