<svg width="40" height="40" viewBox="0 0 40 40" fill="none" xmlns="http://www.w3.org/2000/svg">
<g clip-path="url(#clip0)">
<path d="M20.0944 35.0514C22.6753 35.0514 24.7674 32.9592 24.7674 30.3783C24.7674 27.7975 22.6753 25.7053 20.0944 25.7053C17.5136 25.7053 15.4214 27.7975 15.4214 30.3783C15.4214 32.9592 17.5136 35.0514 20.0944 35.0514Z" fill="#030104"/>
<path d="M31.2628 19.1198C31.1935 19.0485 31.1203 18.9849 31.049 18.9194L30.8391 18.721C30.8044 18.6844 30.7659 18.6575 30.7216 18.6228C24.679 13.1331 15.4312 13.3507 9.66408 19.1178L8.98797 19.7959L8.05183 20.732C6.9115 21.8723 6.91728 23.7312 8.05953 24.8734C9.20371 26.0195 11.0625 26.0214 12.2009 24.8811L13.8151 23.2669C17.4826 19.6013 23.4481 19.6013 27.1138 23.265L28.2791 24.3938C29.4079 25.5225 31.2494 25.5206 32.3839 24.3841C32.9329 23.8371 33.2353 23.1071 33.2372 22.3308C33.2391 21.5584 32.9406 20.8283 32.3916 20.2832L31.2628 19.1198Z" fill="#030104"/>
<path d="M39.2237 13.3431L38.2529 12.3723C38.2491 12.3684 38.2471 12.3626 38.2394 12.3607L37.4728 11.5902C37.338 11.4573 37.1916 11.3417 37.0375 11.2416C27.1887 2.59475 12.2084 2.86057 2.67361 12.0333C2.62738 12.0756 2.57537 12.1045 2.52914 12.1508L0.776279 13.9055C-0.263883 14.9438 -0.258104 16.6331 0.787836 17.679C1.83185 18.723 3.52115 18.7307 4.56131 17.6887L6.31418 15.9377C6.32574 15.9223 6.33537 15.9088 6.34692 15.8992C14.0576 8.45048 26.2891 8.40425 34.0615 15.747L35.4406 17.1281C36.4789 18.1664 38.172 18.1625 39.216 17.1185C40.2581 16.0726 40.262 14.3813 39.2237 13.3431Z" fill="#030104"/>
</g>
<defs>
<clipPath id="clip0">
<rect width="40" height="40" fill="white"/>
</clipPath>
</defs>
</svg>
