<svg width="40" height="40" viewBox="0 0 40 40" fill="none" xmlns="http://www.w3.org/2000/svg">
<path d="M36.4844 0H3.51562C1.57715 0 0 1.57715 0 3.51562V36.4844C0 38.4229 1.57715 40 3.51562 40H36.4844C38.4229 40 40 38.4229 40 36.4844V3.51562C40 1.57715 38.4229 0 36.4844 0ZM33.7491 10.9897L27.5629 19.2197C27.1744 19.7369 26.4404 19.8413 25.9232 19.4531C24.2014 18.1619 22.153 17.4792 20 17.4792C17.8467 17.4792 15.7986 18.1619 14.0768 19.4531C13.866 19.6112 13.6191 19.6875 13.3746 19.6875C13.0188 19.6875 12.6672 19.5261 12.4368 19.2197L6.25092 10.9897C6.06384 10.741 5.98358 10.4282 6.02722 10.1202C6.07117 9.81262 6.23566 9.53461 6.48438 9.34784C10.4132 6.40137 15.087 4.84375 20 4.84375C24.913 4.84375 29.5868 6.40137 33.5156 9.34784C33.7643 9.53461 33.9288 9.81232 33.9728 10.1202C34.0164 10.4282 33.9362 10.741 33.7491 10.9897Z" fill="black"/>
<path d="M8.84937 10.5457L13.6403 16.9196C15.2211 15.9521 16.9826 15.3662 18.8283 15.1917V11.6199C18.8283 10.9726 19.3532 10.448 20.0002 10.448C20.6475 10.448 21.1721 10.9726 21.1721 11.6199V15.1917C23.0178 15.3662 24.7792 15.9521 26.36 16.9196L31.151 10.5457C27.8401 8.34503 24.009 7.1875 20.0002 7.1875C15.9914 7.1875 12.1602 8.34503 8.84937 10.5457Z" fill="black"/>
</svg>
