<svg width="75" height="75" viewBox="0 0 75 75" fill="none" xmlns="http://www.w3.org/2000/svg">
<path d="M73.5351 72.0714H67.0898V60.4992C67.0898 59.6901 66.4338 59.0343 65.6249 59.0343C64.8161 59.0343 64.1601 59.6901 64.1601 60.4992V72.0714H46.582V44.2394C46.582 43.4304 45.9261 42.7746 45.1172 42.7746H29.8829C29.074 42.7746 28.418 43.4304 28.418 44.2394V72.0714H10.84V38.9659H11.4037C11.7921 38.9659 12.1646 38.8115 12.4394 38.5368L37.5 13.4762L62.5606 38.5368C62.8354 38.8115 63.208 38.9659 63.5964 38.9659H64.1601V49.9522C64.1601 50.7612 64.8161 51.417 65.6249 51.417C66.4338 51.417 67.0898 50.7612 67.0898 49.9522V38.9659H73.5351C74.1276 38.9659 74.6617 38.6089 74.8884 38.0616C75.1152 37.5144 74.9896 36.8842 74.5708 36.4653L38.5358 0.430235C37.9637 -0.141784 37.0364 -0.141784 36.4641 0.430235L22.6946 14.1997C22.1226 14.7717 22.1226 15.6993 22.6946 16.2713C23.2668 16.8435 24.1943 16.8435 24.7664 16.2713L37.5 3.5376L69.9985 36.0362H64.2032L38.5358 10.3689C37.9637 9.79685 37.0364 9.79685 36.4641 10.3689L10.7968 36.0362H5.00144L16.5633 24.4745C17.1353 23.9025 17.1353 22.975 16.5633 22.4028C15.9912 21.8309 15.0637 21.8308 14.4915 22.4028L0.429094 36.4653C0.0102972 36.8842 -0.115239 37.5142 0.111518 38.0616C0.338274 38.609 0.872501 38.9659 1.46503 38.9659H7.91032V72.0712H1.46503C0.656144 72.0712 0.000189855 72.727 0.000189855 73.5361C0.000189855 74.3451 0.656144 75.0009 1.46503 75.0009H9.37515H29.8829H45.1172H65.6249H73.5351C74.3439 75.0009 74.9999 74.3451 74.9999 73.5361C74.9999 72.727 74.3439 72.0714 73.5351 72.0714ZM43.6524 72.0714H31.3477V45.7043H43.6524V72.0714Z" fill="white"/>
</svg>
