<svg width="12" height="15" viewBox="0 0 12 15" fill="none" xmlns="http://www.w3.org/2000/svg">
<path d="M5.83333 0C2.61667 0 0 2.61667 0 5.83333C0 8.82667 4.68 14.1283 5.21333 14.7233C5.37167 14.8983 5.59667 15 5.83333 15C6.07 15 6.295 14.8983 6.45333 14.7233C6.98667 14.1283 11.6667 8.82667 11.6667 5.83333C11.6667 2.61667 9.05 0 5.83333 0ZM5.83333 8.33333C4.45333 8.33333 3.33333 7.21333 3.33333 5.83333C3.33333 4.45333 4.45333 3.33333 5.83333 3.33333C7.21333 3.33333 8.33333 4.45333 8.33333 5.83333C8.33333 7.21333 7.21333 8.33333 5.83333 8.33333Z" fill="white"/>
</svg>
