<svg width="16" height="20" viewBox="0 0 16 20" fill="none" xmlns="http://www.w3.org/2000/svg">
<path d="M7.77778 0C3.48889 0 0 3.48889 0 7.77778C0 11.7689 6.24 18.8378 6.95111 19.6311C7.16222 19.8644 7.46222 20 7.77778 20C8.09333 20 8.39333 19.8644 8.60444 19.6311C9.31555 18.8378 15.5556 11.7689 15.5556 7.77778C15.5556 3.48889 12.0667 0 7.77778 0ZM7.77778 11.1111C5.93778 11.1111 4.44444 9.61778 4.44444 7.77778C4.44444 5.93778 5.93778 4.44444 7.77778 4.44444C9.61778 4.44444 11.1111 5.93778 11.1111 7.77778C11.1111 9.61778 9.61778 11.1111 7.77778 11.1111Z" fill="#0F0F0F"/>
</svg>
