<svg height="512pt" viewBox="0 0 512 512" width="512pt" xmlns="http://www.w3.org/2000/svg"><path d="m456.832031 0h-401.664062c-30.421875 0-55.167969 24.746094-55.167969 55.164062v73.367188h512v-73.367188c0-30.417968-24.746094-55.164062-55.167969-55.164062zm-334.828125 74.867188c-2.789062 2.800781-6.660156 4.398437-10.609375 4.398437-3.941406 0-7.808593-1.601563-10.597656-4.398437-2.792969-2.789063-4.402344-6.660157-4.402344-10.601563 0-3.949219 1.609375-7.820313 4.402344-10.609375 2.789063-2.789062 6.648437-4.390625 10.597656-4.390625s7.820313 1.601563 10.609375 4.390625c2.792969 2.789062 4.402344 6.660156 4.402344 10.609375 0 3.941406-1.609375 7.8125-4.402344 10.601563zm96.402344 0c-2.789062 2.800781-6.660156 4.398437-10.609375 4.398437-3.941406 0-7.8125-1.601563-10.601563-4.398437-2.789062-2.789063-4.390624-6.648438-4.390624-10.601563 0-3.949219 1.601562-7.820313 4.390624-10.609375 2.789063-2.789062 6.660157-4.390625 10.601563-4.390625 3.949219 0 7.820313 1.601563 10.609375 4.390625s4.390625 6.660156 4.390625 10.609375c0 3.941406-1.601563 7.8125-4.390625 10.601563zm96.398438 0c-2.789063 2.800781-6.660157 4.398437-10.609376 4.398437-3.9375 0-7.808593-1.601563-10.597656-4.398437-2.800781-2.789063-4.402344-6.660157-4.402344-10.601563 0-3.949219 1.601563-7.820313 4.402344-10.609375 2.789063-2.789062 6.648438-4.390625 10.597656-4.390625 3.949219 0 7.820313 1.601563 10.609376 4.390625 2.792968 2.789062 4.402343 6.660156 4.402343 10.609375 0 3.941406-1.609375 7.8125-4.402343 10.601563zm96.402343 0c-2.792969 2.800781-6.660156 4.398437-10.609375 4.398437-3.941406 0-7.8125-1.601563-10.601562-4.398437-2.789063-2.789063-4.398438-6.648438-4.398438-10.601563 0-3.949219 1.609375-7.820313 4.398438-10.609375 2.789062-2.789062 6.648437-4.390625 10.601562-4.390625 3.949219 0 7.816406 1.601563 10.609375 4.390625 2.789063 2.789062 4.390625 6.660156 4.390625 10.609375 0 3.941406-1.601562 7.8125-4.390625 10.601563zm0 0"/><path d="m417.734375 237.800781h-323.46875v194.933594h323.46875zm-49.265625 64.265625h-224.9375c-8.28125 0-15-6.714844-15-15s6.71875-15 15-15h224.9375c8.28125 0 15 6.714844 15 15s-6.71875 15-15 15zm0 0"/><path d="m0 456.832031c0 30.421875 24.746094 55.167969 55.167969 55.167969h401.664062c30.421875 0 55.167969-24.746094 55.167969-55.167969v-298.300781h-512zm64.265625-234.03125c0-8.285156 6.71875-15 15-15h353.46875c8.285156 0 15 6.714844 15 15v224.933594c0 8.285156-6.714844 15-15 15h-353.46875c-8.28125 0-15-6.714844-15-15zm0 0"/></svg>