<svg width="75" height="75" viewBox="0 0 75 75" fill="none" xmlns="http://www.w3.org/2000/svg">
<path d="M53.1101 25.2774L52.3076 22.6362C51.2882 19.6359 48.0296 18.0301 45.0293 19.0495C43.3415 19.6229 42.016 20.9484 41.4426 22.6362L40.6401 25.2774C39.9648 27.5049 39.8231 29.8601 40.2263 32.1524C40.5942 34.0824 41.8195 35.7406 43.5564 36.6587L42.6576 56.75C42.5373 57.8714 42.901 58.9909 43.6576 59.8275C45.2846 61.6071 48.0465 61.7309 49.8262 60.1039C49.9225 60.0159 50.0146 59.9237 50.1026 59.8275C50.8423 59.0146 51.2054 57.9279 51.1026 56.8337L50.1989 36.6562C51.9334 35.7376 53.1567 34.0806 53.5239 32.1524C53.9271 29.8601 53.7854 27.5049 53.1101 25.2774ZM51.0614 31.7175C50.7907 33.104 49.8026 34.2417 48.4676 34.7037C47.9609 34.8942 47.6345 35.3892 47.6589 35.9299L48.6089 57.0312C48.6526 57.4451 48.516 57.8578 48.2339 58.1637C47.4812 58.9089 46.269 58.9089 45.5163 58.1637C45.2201 57.8331 45.0856 57.3881 45.1489 56.9487L46.0914 35.9299C46.1157 35.3892 45.7893 34.8942 45.2826 34.7037C43.9476 34.2417 42.9595 33.104 42.6888 31.7175C42.3545 29.8143 42.4723 27.8592 43.0326 26.0099L43.8351 23.3674C44.456 21.6885 46.3204 20.8309 47.9995 21.4518C48.8871 21.7801 49.5868 22.4799 49.9151 23.3674L50.7176 26.0099C51.2773 27.8593 51.3951 29.8143 51.0614 31.7175Z" fill="white"/>
<path d="M33.75 18.75C33.0597 18.75 32.5 19.3097 32.5 20V30.7325L29.1163 34.1162C28.8659 34.3656 28.7328 34.7095 28.75 35.0625L29.8438 56.9375C29.8698 57.4092 29.6986 57.8706 29.3713 58.2113C28.687 58.9016 27.5727 58.9066 26.8822 58.2222C26.8784 58.2186 26.8748 58.2148 26.8713 58.2113C26.5438 57.8706 26.3727 57.4092 26.3988 56.9375L27.5 35.0625C27.5175 34.7097 27.3848 34.3659 27.135 34.1162L23.75 30.7325V20C23.75 19.3097 23.1903 18.75 22.5 18.75C21.8097 18.75 21.25 19.3097 21.25 20V31.25C21.25 31.5816 21.3819 31.8994 21.6162 32.1338L24.9738 35.4925L23.9075 56.8162C23.7941 59.1455 25.5903 61.1258 27.9195 61.2392C30.2488 61.3527 32.2291 59.5564 32.3425 57.2272C32.3492 57.0903 32.3492 56.9533 32.3425 56.8164L31.2763 35.4927L34.6338 32.1339C34.8681 31.8995 35 31.5817 35 31.2502V20.0002C35 19.3097 34.4403 18.75 33.75 18.75Z" fill="white"/>
<path d="M26.25 18.75C25.5597 18.75 25 19.3097 25 20V30C25 30.6903 25.5597 31.25 26.25 31.25C26.9403 31.25 27.5 30.6903 27.5 30V20C27.5 19.3097 26.9403 18.75 26.25 18.75Z" fill="white"/>
<path d="M30 18.75C29.3097 18.75 28.75 19.3097 28.75 20V30C28.75 30.6903 29.3097 31.25 30 31.25C30.6903 31.25 31.25 30.6903 31.25 30V20C31.25 19.3097 30.6903 18.75 30 18.75Z" fill="white"/>
<path d="M37.5 0C16.7894 0 0 16.7894 0 37.5C0 58.2106 16.7894 75 37.5 75C58.2106 75 75 58.2106 75 37.5C74.9766 16.7991 58.2009 0.0234375 37.5 0ZM37.5 72.5C18.17 72.5 2.5 56.83 2.5 37.5C2.5 18.17 18.17 2.5 37.5 2.5C56.83 2.5 72.5 18.17 72.5 37.5C72.478 56.8208 56.8208 72.478 37.5 72.5Z" fill="white"/>
<path d="M41.5576 60.9646C41.4906 60.2776 40.8792 59.7749 40.192 59.8419C40.1759 59.8435 40.1598 59.8454 40.1437 59.8476L40.1487 59.8463C38.3889 60.0507 36.6111 60.0507 34.8512 59.8463C34.1653 59.7658 33.5442 60.2566 33.4637 60.9426C33.3832 61.6285 33.874 62.2496 34.56 62.3301C36.5117 62.558 38.4832 62.558 40.435 62.3301C41.122 62.2632 41.6246 61.6518 41.5576 60.9646Z" fill="white"/>
<path d="M56.6249 21.3925C56.1813 20.8636 55.3928 20.7944 54.8639 21.2382C54.8622 21.2396 54.8605 21.2411 54.8586 21.2425C54.331 21.6875 54.2638 22.476 54.7086 23.0038C62.2453 31.9507 61.6688 45.1802 53.3824 53.4375C52.8933 53.9249 52.8919 54.7166 53.3792 55.2057C53.8666 55.6947 54.6583 55.6961 55.1474 55.2088C64.3562 46.0349 64.9984 31.3346 56.6249 21.3925Z" fill="white"/>
<path d="M29.1232 16.5233C29.1224 16.5233 29.1217 16.5232 29.1209 16.5232C29.1197 16.5232 29.1185 16.5233 29.1172 16.5233H29.1232Z" fill="white"/>
<path d="M43.3962 13.1992C38.511 12.0284 33.3876 12.3431 28.6824 14.1029C28.0362 14.3459 27.7094 15.0668 27.9524 15.7129C28.1355 16.2 28.6012 16.5223 29.1213 16.5228C29.2708 16.522 29.419 16.4947 29.5587 16.4417C33.7958 14.8572 38.4096 14.5742 42.8087 15.6292C43.4798 15.7914 44.1552 15.379 44.3174 14.7079C44.4796 14.0368 44.0673 13.3614 43.3962 13.1992Z" fill="white"/>
<path d="M21.5611 53.3749C17.3472 49.1682 14.9854 43.4543 14.9998 37.4999C14.9875 32.7427 16.4943 28.1058 19.3011 24.2649C19.7159 23.713 19.6048 22.9294 19.0529 22.5146C18.5011 22.0997 17.7175 22.2108 17.3026 22.7627C17.2953 22.7725 17.2881 22.7824 17.2811 22.7924C10.054 32.728 11.1175 46.4422 19.7898 55.1449C20.2786 55.6339 21.0714 55.6343 21.5604 55.1455C22.0495 54.6568 22.0498 53.8639 21.5611 53.3749Z" fill="white"/>
</svg>
