<svg width="75" height="69" viewBox="0 0 75 69" fill="none" xmlns="http://www.w3.org/2000/svg">
<path d="M73.7491 56.3745H72.3603C75.8131 53.0144 75.8883 47.4913 72.5282 44.0386C71.995 43.4908 71.3922 43.0155 70.7354 42.6247C73.376 41.0478 74.9947 38.2004 74.9991 35.1248C74.9928 30.295 71.079 26.3811 66.2492 26.3749H54.9993V17.625C54.999 16.9347 54.4392 16.3752 53.7489 16.3755C53.6854 16.3755 53.622 16.3803 53.5593 16.39L38.7495 18.6675V17.5C41.6574 16.902 43.7457 14.3439 43.7495 11.3751C43.7495 5.92014 38.6033 0.710208 38.3833 0.49146C37.8952 0.0034976 37.1039 0.0034976 36.6158 0.49146C36.3958 0.710208 31.2496 5.92014 31.2496 11.3751C31.2534 14.3439 33.3416 16.902 36.2495 17.5V19.0537L21.0597 21.3912C20.4505 21.4849 20.0005 22.0085 19.9998 22.6249V36.551C19.0868 35.5663 18.0338 34.7213 16.8748 34.0435C16.4881 33.8203 16.0115 33.8203 15.6248 34.0435C11.9336 36.1884 9.44176 39.9197 8.87489 44.1509C8.01099 43.9737 7.13179 43.8812 6.24992 43.8747C5.69821 43.8772 5.14728 43.913 4.59994 43.9822C4.15651 44.0356 3.77542 44.3215 3.59996 44.7322C1.0528 50.7071 3.03793 57.6493 8.35865 61.3745H0V63.8744H2.97746L5.13119 68.1831C5.3429 68.6069 5.77618 68.8745 6.24992 68.8744H53.7493C54.4396 68.8744 54.9993 68.3147 54.9993 67.6244V63.8744H62.9767L65.1304 68.1831C65.3422 68.6069 65.7754 68.8745 66.2492 68.8744H71.2491C71.9394 68.8744 72.4991 68.3147 72.4991 67.6244V63.8744H73.7491C74.4394 63.8744 74.9991 63.3147 74.9991 62.6244V57.6245C74.9991 56.9342 74.4394 56.3745 73.7491 56.3745ZM72.4991 50.1246C72.495 53.5746 69.6991 56.3705 66.2492 56.3745H43.7495C40.2978 56.3745 37.4995 53.5763 37.4995 50.1246C37.4995 46.6729 40.2978 43.8747 43.7495 43.8747H59.9993C62.0703 43.8747 63.7492 45.5536 63.7492 47.6246C63.7492 49.6957 62.0703 51.3746 59.9993 51.3746H47.4994C46.8091 51.3746 46.2494 50.8149 46.2494 50.1246C46.2494 49.4343 46.8091 48.8746 47.4994 48.8746H56.2493V46.3746H47.4994C45.4283 46.3746 43.7495 48.0535 43.7495 50.1246C43.7495 52.1957 45.4283 53.8745 47.4994 53.8745H59.9993C63.4492 53.8705 66.2451 51.0746 66.2492 47.6246C66.2446 46.2678 65.7939 44.9501 64.9667 43.8747H66.2492C69.6991 43.8787 72.495 46.6746 72.4991 50.1246ZM62.4992 28.8749C64.5703 28.8749 66.2492 30.5537 66.2492 32.6248C66.2492 34.6959 64.5703 36.3748 62.4992 36.3748H49.9994C49.3091 36.3748 48.7494 35.8151 48.7494 35.1248C48.7494 34.4345 49.3091 33.8748 49.9994 33.8748H58.7493V31.3748H49.9994C47.9283 31.3748 46.2494 33.0537 46.2494 35.1248C46.2494 37.1958 47.9283 38.8747 49.9994 38.8747H62.4992C65.9492 38.8707 68.7451 36.0748 68.7491 32.6248C68.7479 31.3355 68.3441 30.0787 67.5942 29.0299C70.9604 29.7936 73.0702 33.1415 72.3064 36.5077C71.6638 39.3407 69.154 41.3572 66.2492 41.3747H59.9993H48.7494C45.2977 41.3747 42.4995 38.5765 42.4995 35.1248C42.4995 31.6731 45.2977 28.8749 48.7494 28.8749H62.4992ZM33.7496 11.3751C33.7496 8.17886 36.1558 4.85516 37.4995 3.25018C38.8445 4.85391 41.2495 8.17136 41.2495 11.3751C41.2429 12.9585 40.2425 14.3672 38.7495 14.895V12.6251H36.2495V14.895C34.7566 14.3672 33.7561 12.9585 33.7496 11.3751ZM16.2498 36.5973C19.0424 38.4768 20.8507 41.5047 21.181 44.8547C19.3166 45.5992 17.6376 46.7421 16.261 48.2034C14.8745 46.7478 13.1875 45.6118 11.3174 44.8747C11.6419 41.517 13.4512 38.4807 16.2498 36.5973ZM22.52 47.0106C23.7185 46.5896 24.9794 46.3746 26.2497 46.3746C26.4459 46.3746 26.6509 46.3821 26.8647 46.3959C28.924 52.2579 25.8414 58.6792 19.9794 60.7385C18.781 61.1595 17.5199 61.3745 16.2498 61.3745C16.0535 61.3745 15.8486 61.367 15.6348 61.3532C13.5755 55.4912 16.6581 49.0699 22.52 47.0106ZM4.99994 50.1246C4.99837 48.8546 5.21306 47.5937 5.63493 46.3959C5.84868 46.3821 6.05367 46.3746 6.24992 46.3746C9.48676 46.365 12.5675 47.7643 14.6898 50.2083C12.64 53.3589 11.9925 57.22 12.9023 60.867C8.20099 59.4017 4.999 55.0491 4.99994 50.1246ZM25.4772 66.3744H7.02241L5.77243 63.8744H26.7272L25.4772 66.3744ZM37.4995 66.3744H28.2721L29.5221 63.8744H32.4996V61.3745H24.1309C29.4576 57.6545 31.4477 50.7101 28.8996 44.7334C28.7242 44.3228 28.3431 44.0369 27.8997 43.9834C26.4773 43.8006 25.0345 43.8512 23.6285 44.1334C23.4335 42.7431 23.0258 41.3911 22.4197 40.1247H22.4997V23.6974L52.4993 19.0825V26.3749H48.7494C43.9232 26.3685 40.0056 30.2758 39.9992 35.102C39.9961 37.4979 40.9767 39.79 42.712 41.4422C37.9203 42.0075 34.4944 46.3503 35.0597 51.1419C35.2942 53.13 36.2045 54.9773 37.6383 56.3745H36.2495C35.5592 56.3745 34.9996 56.9342 34.9996 57.6245V62.6244C34.9996 63.3147 35.5592 63.8744 36.2495 63.8744H37.4995V66.3744ZM42.977 66.3744H39.9995V63.8744H44.2269L42.977 66.3744ZM52.4993 66.3744H45.7719L47.0219 63.8744H52.4993V66.3744ZM69.9991 66.3744H67.0217L65.7717 63.8744H69.9991V66.3744ZM72.4991 61.3745H37.4995V58.8745H72.4991V61.3745Z" fill="white"/>
</svg>
