<svg width="20" height="20" viewBox="0 0 20 20" fill="none" xmlns="http://www.w3.org/2000/svg">
<path d="M19.9044 15.9651C19.8651 15.8494 19.7732 15.6709 19.7076 15.5685C19.2941 14.9406 17.0726 13.1924 15.9634 12.6206C15.3301 12.2935 14.8609 12.1844 14.513 12.2868C14.1389 12.3926 13.942 12.5677 13.3153 13.351C13.0626 13.6649 12.8034 13.9591 12.7345 14.0053C12.5638 14.1243 12.2291 14.2202 11.9929 14.2202C11.4448 14.2168 10.4506 13.8599 9.68597 13.3906C9.09203 13.0271 8.33077 12.3761 7.74664 11.7316C7.0575 10.9749 6.58831 10.3073 6.21746 9.55379C5.73839 8.5855 5.61698 7.99392 5.81712 7.56097C5.86635 7.45193 5.93199 7.33629 5.96149 7.29989C5.99104 7.26689 6.29952 7.01239 6.64075 6.73478C7.3102 6.19943 7.41848 6.07716 7.54317 5.71032C7.70067 5.24432 7.65804 4.76844 7.41521 4.28926C7.22814 3.92572 6.73921 3.13258 6.38483 2.62034C5.91558 1.94619 4.74737 0.505304 4.51435 0.310266C4.09433 -0.0333977 3.55622 -0.0929203 2.96222 0.138462C2.33552 0.383022 1.16072 1.33479 0.658641 1.99906C0.205797 2.60052 0.0319357 3.02682 0.00565707 3.58864C-0.0172971 4.05129 0.022066 4.24297 0.2649 4.83455C2.16487 9.47446 5.00002 13.1791 8.89515 16.1204C10.9297 17.6571 13.0396 18.827 15.2284 19.6268C16.5048 20.0928 17.0594 20.1159 17.7124 19.7326C17.988 19.5673 18.6706 18.8634 19.0512 18.3512C19.6813 17.4985 19.9143 17.1052 19.9799 16.7913C20.0259 16.5765 19.9898 16.2031 19.9044 15.9651Z" fill="#0F0F0F"/>
</svg>
