<svg width="15" height="15" viewBox="0 0 15 15" fill="none" xmlns="http://www.w3.org/2000/svg">
<path d="M14.9283 11.9738C14.8988 11.887 14.8299 11.7532 14.7807 11.6764C14.4706 11.2055 12.8044 9.89426 11.9726 9.46545C11.4976 9.22009 11.1456 9.13831 10.8848 9.21511C10.6042 9.29447 10.4565 9.42579 9.98645 10.0132C9.79697 10.2487 9.60253 10.4693 9.55085 10.504C9.42286 10.5932 9.17184 10.6651 8.99464 10.6651C8.58363 10.6626 7.83792 10.3949 7.26448 10.043C6.81902 9.77035 6.24808 9.28207 5.80998 8.79873C5.29312 8.23114 4.94123 7.73047 4.66309 7.16534C4.30379 6.43912 4.21273 5.99544 4.36284 5.67073C4.39976 5.58895 4.44899 5.50222 4.47111 5.47491C4.49328 5.45017 4.72464 5.25929 4.98056 5.05108C5.48265 4.64957 5.56386 4.55787 5.65737 4.28274C5.77551 3.93324 5.74353 3.57632 5.5614 3.21694C5.42111 2.94429 5.05441 2.34943 4.78862 1.96526C4.43668 1.45964 3.56053 0.378976 3.38576 0.232697C3.07075 -0.0250521 2.66717 -0.0696936 2.22167 0.103844C1.75164 0.287263 0.870538 1.00109 0.493981 1.49929C0.154348 1.95039 0.0239518 2.27011 0.0042428 2.69148C-0.0129728 3.03846 0.0165495 3.18223 0.198675 3.62591C1.62365 7.10584 3.75001 9.88434 6.67136 12.0903C8.19724 13.2428 9.77972 14.1203 11.4213 14.7201C12.3786 15.0696 12.7946 15.0869 13.2843 14.7994C13.491 14.6755 14.003 14.1475 14.2884 13.7634C14.761 13.1239 14.9357 12.8289 14.9849 12.5935C15.0194 12.4324 14.9923 12.1523 14.9283 11.9738Z" fill="white"/>
</svg>
