<svg width="30" height="30" viewBox="0 0 30 30" fill="none" xmlns="http://www.w3.org/2000/svg">
<path fill-rule="evenodd" clip-rule="evenodd" d="M15 30C23.2843 30 30 23.2843 30 15C30 6.71573 23.2843 0 15 0C6.71573 0 0 6.71573 0 15C0 23.2843 6.71573 30 15 30ZM21.7875 7.93631C23.2846 9.28386 24.1145 12.2632 23.5539 16.9823C23.0633 21.1459 20.2564 21.8834 19.3142 22.1309L19.3141 22.131C19.2218 22.1552 19.1473 22.1748 19.0947 22.1924C18.8402 22.277 16.6009 22.8564 13.685 22.6035L13.3948 22.9504C11.9106 24.726 11.6548 25.0319 11.1269 24.8609C10.6367 24.7066 10.6657 23.9393 10.6657 23.9393L10.6696 22.0452H10.6657C6.4054 20.8049 6.46491 16.233 6.51502 13.7924C6.56513 11.3525 7.02241 9.38173 8.32062 8.03889C11.2115 5.29369 19.3719 5.63429 21.7882 7.93553L21.7875 7.93631ZM11.5528 24.1695C12.1268 23.5721 13.9723 21.2708 13.9723 21.2708C16.445 21.436 18.4143 20.9294 18.6265 20.859C18.6759 20.8425 18.7472 20.8253 18.836 20.8039C19.6385 20.6101 21.8683 20.0717 22.2807 16.6355C22.2803 16.6184 22.2863 16.5578 22.296 16.4604C22.3941 15.4721 22.8692 10.6866 20.8408 8.88844C19.018 7.17524 11.8637 6.64358 9.32756 9.02155C8.22823 10.1452 7.85552 11.8137 7.81637 13.8511C7.81502 13.9211 7.81347 13.9933 7.81188 14.0675C7.7671 16.1519 7.68837 19.8163 11.1762 20.8159C11.1762 20.8159 11.1621 23.7075 11.1621 23.9604C11.159 24.3457 11.3649 24.3637 11.5528 24.1695ZM14.995 9.46843C14.6935 9.46843 14.6935 9.93823 14.995 9.94215C17.3338 9.96016 19.26 11.5904 19.2811 14.5806C19.2811 14.8962 19.7431 14.8923 19.7392 14.5767H19.7384C19.7133 11.3547 17.6102 9.48644 14.995 9.46843ZM18.5277 14.0965C18.5238 14.4121 18.0626 14.3972 18.0697 14.0856C18.1057 12.5297 17.1653 11.3114 15.3801 11.1759C15.0794 11.154 15.1107 10.6803 15.4122 10.7022C17.4707 10.8565 18.5661 12.3199 18.5277 14.0965ZM17.5762 16.1061C17.1894 15.8821 16.7956 16.0215 16.6327 16.2415L16.2921 16.6824C16.1191 16.9063 15.7957 16.8765 15.7957 16.8765C13.4357 16.2525 12.8046 13.7829 12.8046 13.7829C12.8046 13.7829 12.7757 13.4486 12.9918 13.2693L13.4177 12.9169C13.6307 12.7478 13.7654 12.3406 13.5485 11.9405C13.1116 11.1511 12.7829 10.7518 12.5627 10.4842C12.4908 10.3969 12.4305 10.3237 12.3818 10.2555C12.1735 9.99474 11.8603 9.93602 11.5346 10.1122H11.5276C10.8503 10.5084 10.1088 11.2499 10.346 12.0133C10.4162 12.1529 10.4966 12.3454 10.5939 12.5784C11.0577 13.6892 11.9058 15.7203 13.8656 17.3228C14.9798 18.2397 16.7431 19.1793 17.4917 19.3962L17.4987 19.4072C18.2363 19.6531 18.9535 18.8826 19.3364 18.1849V18.1795C19.5063 17.842 19.45 17.5225 19.2018 17.3135C18.7617 16.8844 18.0977 16.4107 17.5762 16.1061ZM16.8929 13.6938C16.8538 12.8865 16.4889 12.4934 15.7364 12.4496C15.4318 12.4316 15.46 11.9578 15.7615 11.9759C16.7512 12.0307 17.3009 12.6179 17.351 13.6718C17.3651 13.9874 16.907 14.0093 16.8929 13.6938Z" fill="white"/>
</svg>
