<svg width="74" height="21" viewBox="0 0 74 21" fill="none" xmlns="http://www.w3.org/2000/svg">
<path d="M42 2.82353C42 1.26414 43.2641 0 44.8235 0H71.1765C72.7359 0 74 1.26414 74 2.82353V17.4118C74 18.9712 72.7359 20.2353 71.1765 20.2353H44.8235C43.2641 20.2353 42 18.9712 42 17.4118V2.82353Z" fill="white"/>
<path fill-rule="evenodd" clip-rule="evenodd" d="M71.1765 0.705882H44.8235C43.654 0.705882 42.7059 1.65399 42.7059 2.82353V17.4118C42.7059 18.5813 43.654 19.5294 44.8235 19.5294H71.1765C72.346 19.5294 73.2941 18.5813 73.2941 17.4118V2.82353C73.2941 1.65399 72.346 0.705882 71.1765 0.705882ZM44.8235 0C43.2641 0 42 1.26414 42 2.82353V17.4118C42 18.9712 43.2641 20.2353 44.8235 20.2353H71.1765C72.7359 20.2353 74 18.9712 74 17.4118V2.82353C74 1.26414 72.7359 0 71.1765 0H44.8235Z" fill="#C4C4C4"/>
<path d="M55.9607 13.6231H54.0547L55.2469 6.25171H57.1528L55.9607 13.6231Z" fill="#00579F"/>
<path d="M62.866 6.43663C62.49 6.28748 61.8937 6.1228 61.1564 6.1228C59.2742 6.1228 57.9487 7.12652 57.9406 8.56153C57.9249 9.62028 58.8896 10.2083 59.611 10.5614C60.3484 10.9221 60.5991 11.1575 60.5991 11.4791C60.5916 11.9729 60.0032 12.2006 59.4545 12.2006C58.6935 12.2006 58.2858 12.0832 57.6661 11.8085L57.4152 11.6907L57.1484 13.3454C57.5955 13.5491 58.4191 13.7298 59.2742 13.7377C61.2741 13.7377 62.5761 12.7495 62.5915 11.2203C62.5991 10.3812 62.0898 9.73817 60.9916 9.21275C60.325 8.87547 59.9167 8.64804 59.9167 8.30294C59.9246 7.98922 60.262 7.66788 61.0146 7.66788C61.6342 7.65214 62.0895 7.80109 62.4344 7.95013L62.6068 8.02841L62.866 6.43663Z" fill="#00579F"/>
<path d="M65.4021 11.0117C65.559 10.5882 66.163 8.94924 66.163 8.94924C66.1551 8.96498 66.3197 8.51794 66.4138 8.24351L66.547 8.87868C66.547 8.87868 66.9079 10.6432 66.9863 11.0117C66.6884 11.0117 65.7785 11.0117 65.4021 11.0117ZM67.7548 6.25171H66.2805C65.8258 6.25171 65.4804 6.38491 65.2843 6.86332L62.4531 13.623H64.4531C64.4531 13.623 64.7823 12.7132 64.8531 12.5173C65.0725 12.5173 67.018 12.5173 67.3003 12.5173C67.355 12.7761 67.5277 13.623 67.5277 13.623H69.2925L67.7548 6.25171Z" fill="#00579F"/>
<path d="M52.4597 6.25171L50.5931 11.2783L50.3891 10.2589C50.044 9.08255 48.9617 7.8045 47.7539 7.16902L49.4637 13.6153H51.4792L54.4752 6.25171H52.4597Z" fill="#00579F"/>
<path d="M48.8597 6.25171H45.7931L45.7617 6.40065C48.1539 7.01237 49.7381 8.48688 50.389 10.2592L49.7224 6.87135C49.6126 6.40055 49.2754 6.26724 48.8597 6.25171Z" fill="#FAA61A"/>
<path d="M0 2.82353C0 1.26414 1.26414 0 2.82353 0H29.1765C30.7359 0 32 1.26414 32 2.82353V17.4118C32 18.9712 30.7359 20.2353 29.1765 20.2353H2.82353C1.26414 20.2353 0 18.9712 0 17.4118V2.82353Z" fill="white"/>
<path fill-rule="evenodd" clip-rule="evenodd" d="M29.1765 0.705882H2.82353C1.65399 0.705882 0.705882 1.65399 0.705882 2.82353V17.4118C0.705882 18.5813 1.65399 19.5294 2.82353 19.5294H29.1765C30.346 19.5294 31.2941 18.5813 31.2941 17.4118V2.82353C31.2941 1.65399 30.346 0.705882 29.1765 0.705882ZM2.82353 0C1.26414 0 0 1.26414 0 2.82353V17.4118C0 18.9712 1.26414 20.2353 2.82353 20.2353H29.1765C30.7359 20.2353 32 18.9712 32 17.4118V2.82353C32 1.26414 30.7359 0 29.1765 0H2.82353Z" fill="#C4C4C4"/>
<path d="M18.5428 5.47437H13.4531V14.6196H18.5428V5.47437Z" fill="#FF5F00"/>
<path d="M13.7761 10.045C13.7761 8.18688 14.6486 6.53881 15.9896 5.47241C15.004 4.69684 13.7599 4.22827 12.4027 4.22827C9.18731 4.22827 6.58594 6.82964 6.58594 10.045C6.58594 13.2604 9.18731 15.8617 12.4027 15.8617C13.7599 15.8617 15.004 15.3932 15.9896 14.6176C14.6486 13.5674 13.7761 11.9031 13.7761 10.045Z" fill="#EB001B"/>
<path d="M25.4076 10.045C25.4076 13.2604 22.8062 15.8617 19.5909 15.8617C18.2337 15.8617 16.9895 15.3932 16.0039 14.6176C17.3611 13.5512 18.2175 11.9031 18.2175 10.045C18.2175 8.18688 17.345 6.53881 16.0039 5.47241C16.9895 4.69684 18.2337 4.22827 19.5909 4.22827C22.8062 4.22827 25.4076 6.8458 25.4076 10.045Z" fill="#F79E1B"/>
</svg>
